<svg width="545" height="414" xmlns="http://www.w3.org/2000/svg">
    <g fill="none" fill-rule="evenodd">
        <path d="M0 0h545v414H0z"/>
        <g transform="translate(54 11)">
            <rect stroke="#292929" fill="#292929" fill-rule="nonzero" x="113.158" y="310.931" width="242.391" height="48.521" rx="22.95"/>
            <path stroke="#292929" fill="#FFF" fill-rule="nonzero" d="m148.934 372.135 7.409 14.236-8.487 4.629-6.564-15.24-8.296 3.942 2.103-29.72 21.455 18.507z"/>
            <path d="M154.377 335.726c.293.49.713.891 1.215 1.162a3.446 3.446 0 0 0 1.639.402c.444.006.886-.059 1.31-.19.376-.12.732-.295 1.057-.518.294-.205.563-.443.803-.708v2.378a5.137 5.137 0 0 1-1.384.782 5.285 5.285 0 0 1-1.882.274 6.14 6.14 0 0 1-2.187-.38 5.052 5.052 0 0 1-2.907-2.811 5.96 5.96 0 0 1 0-4.355 4.957 4.957 0 0 1 1.152-1.701 5.02 5.02 0 0 1 1.755-1.057 6.14 6.14 0 0 1 2.187-.38c.64-.02 1.277.077 1.882.285.501.183.969.447 1.384.782v2.325a5.284 5.284 0 0 0-.803-.708 4.83 4.83 0 0 0-1.057-.518 4.228 4.228 0 0 0-1.31-.19 3.34 3.34 0 0 0-1.639.412 3.107 3.107 0 0 0-1.215 1.152 3.667 3.667 0 0 0 0 3.572v-.01zM165.326 328.782v10.326h-2.113v-10.326h2.113zm-1.416 3.879h7.589v1.902h-7.589v-1.902zm8.36-3.879v10.326h-2.113v-10.326h2.113zM177.27 328.782v10.326h-2.04v-10.326h2.04zm-.677 0h5.2v1.786h-5.2v-1.786zm0 3.963h4.915v1.755h-4.915v-1.755zm0 4.577h5.2v1.786h-5.2v-1.786zM186.782 335.726c.293.49.713.891 1.215 1.162a3.446 3.446 0 0 0 1.638.402c.444.006.887-.059 1.31-.19.377-.12.733-.295 1.058-.518.293-.205.563-.443.803-.708v2.378a5.137 5.137 0 0 1-1.384.782 5.285 5.285 0 0 1-1.882.274 6.14 6.14 0 0 1-2.188-.38 5.052 5.052 0 0 1-2.906-2.811 5.96 5.96 0 0 1 0-4.355 4.957 4.957 0 0 1 1.152-1.701 5.02 5.02 0 0 1 1.754-1.057 6.14 6.14 0 0 1 2.188-.38c.65-.046 1.302.03 1.924.221.501.183.969.448 1.384.782v2.389a5.284 5.284 0 0 0-.803-.708 4.83 4.83 0 0 0-1.057-.518 4.228 4.228 0 0 0-1.31-.19 3.34 3.34 0 0 0-1.639.412 3.107 3.107 0 0 0-1.215 1.152 3.667 3.667 0 0 0 0 3.572l-.042-.01zM197.805 328.782v10.326h-2.166v-10.326h2.166zm6.183 0-4.28 4.84 4.502 5.486h-2.568l-4.46-5.433 4.301-4.893h2.505zM222.917 328.782h2.484l-4.344 10.896-3.245-6.785-3.255 6.785-4.344-10.896h2.484l2.23 6.405 2.875-6.933 2.906 6.933zM229.512 328.782v10.326H227.4v-10.326zM231.404 328.782h7.673v1.902h-2.79v8.455h-2.114v-8.455h-2.78zM243.125 328.782v10.326h-2.113v-10.326h2.113zm-1.416 3.879h7.578v1.902h-7.578v-1.902zm8.35-3.879v10.326h-2.114v-10.326h2.114zM260.364 328.782v10.326h-2.178v-10.326h2.178zm6.182 0-4.27 4.84 4.503 5.486h-2.568l-4.46-5.433 4.29-4.893h2.505zM270.732 328.782v10.326h-2.114v-10.326zM283.13 328.782v10.844l-7.4-6.923v6.405h-2.028v-10.844l7.387 6.923v-6.405zM288.266 328.782v10.326h-2.114v-10.326h2.114zm-.803 10.326v-1.924h2.113c.437.006.872-.055 1.29-.18a2.949 2.949 0 0 0 1.057-.58c.322-.289.569-.652.718-1.058a4.386 4.386 0 0 0 0-2.938 2.684 2.684 0 0 0-.718-1.004 2.8 2.8 0 0 0-1.057-.581 4.323 4.323 0 0 0-1.29-.19h-2.113v-1.913h2.113a6.067 6.067 0 0 1 2.843.634 4.608 4.608 0 0 1 1.892 1.786 5.876 5.876 0 0 1 0 5.475 4.63 4.63 0 0 1-1.892 1.796 6.067 6.067 0 0 1-2.843.634l-2.113.043zM299.522 328.782v8.455h4.111v1.85h-6.225V328.76zM312.702 328.782l-3.562 6.045v4.228h-2.114v-4.228l-3.53-6.045h2.41l2.209 4.154 2.23-4.154z" fill="#FFF" fill-rule="nonzero"/>
            <rect stroke="#292929" fill="#FFF" fill-rule="nonzero" transform="rotate(180 123.875 100.15)" x="60.503" y="75.757" width="126.744" height="48.785" rx="15.21"/>
            <path stroke="#292929" fill="#00AEEF" fill-rule="nonzero" d="M107.429 100.149H82.243M165.506 100.149h-52.602"/>
            <ellipse stroke="#292929" fill="#CCF2FF" fill-rule="nonzero" cx="52.597" cy="76.813" rx="30.375" ry="30.374"/>
            <circle fill="#292929" fill-rule="nonzero" cx="59.731" cy="72.618" r="1.49"/>
            <path d="M35.982 86.98a16.826 16.826 0 0 1 29.287 8.55" stroke="#292929" fill="#CCF2FF" fill-rule="nonzero"/>
            <path d="M28.573 83.863c1.829-.317 3.087 2.113 1.501 11.393 3.7-.645 15.6-3.287 17.09-3.424 1.49-.138 4.059-.35 4.323 1.595.264 1.945-1.649 2.463-2.23 2.727-.581.264-5.76 2.294-7.028 2.737-1.269.444-1.945 1.142-1.586 2.558.36 1.416 1.417 4.767.973 6.796-.444 2.029-1.417 3.35-3.171 3.699-1.755.349-9.512.528-11.193 0-1.68-.529-5.908-3.7-6.436-6.521-.529-2.822-.613-6.257.697-8.381 1.31-2.124 2.569-3.784 2.822-5.02.254-1.237 2.748-7.895 4.238-8.16zM33.213 64.459a7.895 7.895 0 0 1 10.136-4.682 8.392 8.392 0 0 1 5.052 6.077M55.049 68.58l10.611-5.453" stroke="#292929" fill="#CCF2FF" fill-rule="nonzero"/>
            <circle fill="#292929" fill-rule="nonzero" cx="41.658" cy="68.58" r="1.49"/>
            <path d="M311.116 194.359v17.607c.254 16.074 13.358 28.97 29.435 28.97h113.85a16.912 16.912 0 0 0 13.36-6.416c9.733 7.82 14.3 5.76 20.239 6.415-5.538-1.057-13.148-10.79-15.674-28.969a89.112 89.112 0 0 1-.835-12.883v-4.724c0-16.256-13.178-29.434-29.435-29.434H340.593c-16.258.011-29.442 13.176-29.477 29.434zM434.7 202.93h-93.821" stroke="#292929" fill="#CCF2FF" fill-rule="nonzero"/>
            <ellipse stroke="#292929" fill="#00AEEF" fill-rule="nonzero" cx="435.123" cy="153.468" rx="32.5" ry="32.499"/>
            <path d="M414.376 153.468c1.437 0 2.272 1.586 2.272 3.097s-1.596 4.534-2.875 6.722c-1.278 2.187-.75 2.726-.75 3.403a3.773 3.773 0 0 0 3.17 2.726h7.938a2.262 2.262 0 0 1 2.262 3.171c-.824 2.494-3.52 11.34-4.027 12.852-.507 1.51-1.29 4.026-3.932 4.026s-7.482.074-8.687 0c-1.205-.074-5.55-1.839-7.008-5.284-1.458-3.445-1.057-14.204 0-16.096 1.057-1.892 4.154-5.824 5.824-8.92 1.67-3.097 3.551-5.697 5.813-5.697z" stroke="#292929" fill="#00AEEF" fill-rule="nonzero"/>
            <circle fill="#292929" fill-rule="nonzero" cx="423.465" cy="146.292" r="1.585"/>
            <path d="M453.777 147.412a18.442 18.442 0 0 1-30.312 14.13M435.144 146.292a5.284 5.284 0 0 1 4.756-5.739 5.549 5.549 0 0 1 4.799 2.21" stroke="#292929" fill="#00AEEF" fill-rule="nonzero"/>
            <path d="M190.83 245.828V176.54l-24.52 48.616-20.399-57.874c-.402-1.596 16.467-31.844 19.817-38.682 3.35-6.838 14.945-27.817 27.85-27.817 12.904 0 88.135-.972 88.135-.972l4.872 84.761" stroke="#292929" fill="#0068EA" fill-rule="nonzero"/>
            <path d="M309.7 119.902a32.477 32.477 0 0 1-1.511 22.934c-11.024 25.07-47.033 87.277-50.732 92.804-4.122 6.214-8.593 6.162-14.543 6.162-7.79 0-117.856 2.303-123.817-2.114 4.65-7.187 46.81-40.161 46.81-40.161 9.08 0 33.188.274 46.716.274 0 0 42.012-76.834 45.246-83.09 3.234-6.257 15.938-23.664 36.485-14.047a27.849 27.849 0 0 1 15.346 17.238z" stroke="#292929" fill="#0068EA" fill-rule="nonzero"/>
            <path d="M185.556 0s-7.885 38.692 10.569 38.692c18.453 0 34.582.285 40.923 15.462 8.16 19.542-1.828 23.833 6.5 37.604 9.438 1.194 6.711-1.237 6.711-12.778 0-9.639 21.656-9.639 21.656-38.195 0-19.975-11.446-28.705-30.08-28.705-40.933 0-56.28-12.08-56.28-12.08z" stroke="#292929" fill="#292929" fill-rule="nonzero"/>
            <path d="M225.538 103.584c0 6.341 2.283 11.245 8.942 11.245 6.341 0 9.343-4.587 9.343-11.626 0-4.724.053 3.023.053-22.32 0-19.986 9.153-17.693 9.153-26.211 0-11.245-10.739-11.171-13.74-6.447-6.87-12.46-15.854-16.91-35.998-9.512-8.773 34.36.58 48.257 9.987 50.793 9.206 2.495 12.535-1.955 12.535.487-.01 3.984-.275 13.59-.275 13.59zM178.538 240.724H37.969a16.646 16.646 0 0 1-16.086-12.376L.227 146.799a6.89 6.89 0 0 1 6.659-8.645h140.568a16.646 16.646 0 0 1 16.097 12.376l21.624 81.548a6.88 6.88 0 0 1-6.637 8.646z" stroke="#292929" fill="#FFF" fill-rule="nonzero"/>
            <path d="M39.586 240.724h213.495v4.703a6.86 6.86 0 0 1-6.859 6.859H45.886a6.341 6.341 0 0 1-6.342-6.342v-5.284l.042.064zM320.65 193.809l2.81-1.828a20.473 20.473 0 0 1 17.028-2.41c2.726.824 5.284 1.575 6.214 1.828 2.494.634 4.725-.148 6.056-3.688 1.332-3.54 2.653-8.56 3.097-10.336.296-1.195 1.744-1.628 3.435-1.956a2.864 2.864 0 0 0 2.336-2.99c-.138-2.061-.222-5.55-.265-8.646a29.348 29.348 0 0 1 1.808-10.568c2.346-6.342 5.4-19.193-.677-32.9-31.41 9.67-56.882 41.228-41.843 73.494z" stroke="#292929" fill="#FFF" fill-rule="nonzero"/>
            <path d="M329.506 310.931h-88.061c0-24.973-4.016-68.865-2.568-77.954 1.86-11.541 69.428-32.922 81.381-26.496 11.954 6.426 10.495 43.87 12.271 49.292 2.748 8.603-3.667 38.597-3.023 55.158z" stroke="#292929" fill="#0068EA" fill-rule="nonzero"/>
            <path d="m454.456 206.406.5.601a2.97 2.97 0 0 1-.385 4.183l-43.78 36.398a2.97 2.97 0 0 1-4.183-.385l-.5-.602a2.97 2.97 0 0 1 .385-4.182l43.78-36.398a2.97 2.97 0 0 1 4.183.385z" stroke="#292929" fill="#FFF" fill-rule="nonzero"/>
            <path d="M366.012 133.768c0-18.104-11.827-31.991-32.828-31.991-35.713 0-41.79 26.876-44.918 31.875-8.043 12.84-19.67 10.653-30.65 21.676-9.417 9.417-10.369 19.87-10.369 37.9 0 23.092-32.394 29.222-32.394 63.253 0 18.136 16.594 49.325 40.036 49.325 23.738 0 44.474-12.06 44.474-36.071 0-15.198 37.193-17.45 37.193-61.13 0-22.649-11.69-49.567 8-60.559 10.96-6.14 21.456-6.742 21.456-14.278z" stroke="#292929" fill="#292929" fill-rule="nonzero"/>
            <path d="M338.48 274.85s8.296-4.45 17.343-9.744c9.586-5.612 19.025-11.69 22.967-14.5 0 0 12.968 16.814 16.794 22.722-4.904 3.636-49.865 35.934-53.722 38.977-3.858 3.044-12.229 2.98-15.622-2.113-3.392-5.094-40.405-69.151-43.988-82.373 0 0-3.17-18.96 13.676-26.844 16.847-7.885 27.321 6.34 29.974 11.54 2.653 5.2 29.921 52.612 29.921 52.612" stroke="#292929" fill="#0068EA" fill-rule="nonzero"/>
            <path d="M348.51 156.745a5.697 5.697 0 0 1 8.032.317" stroke="#292929"/>
            <path d="M382.109 254.938s23.664-17.512 32.362-23.832c3.35-2.441 5.908.116 3.107 2.579-3.17 2.78-9.84 7.81-10.822 8.793-3.002 3.001.591 6.341 3.096 4.46 4.006-3.044 22.396-16.91 25.757-19.774 3.17-2.526 4.122-.412 2.357 1.987-.613.835-19.997 28.535-19.997 28.535l-26.116 10.294-9.744-13.042z" stroke="#292929" fill="#FFF" fill-rule="nonzero"/>
            <circle fill="#292929" fill-rule="nonzero" cx="352.526" cy="160.296" r="1.258"/>
            <path d="M217.622 53.414a7.018 7.018 0 0 1 9.903.391" stroke="#292929"/>
            <circle fill="#292929" fill-rule="nonzero" cx="222.569" cy="57.79" r="1.543"/>
            <path d="M200.426 53.414a7.018 7.018 0 0 1 9.904.391" stroke="#292929"/>
            <circle fill="#292929" fill-rule="nonzero" cx="205.373" cy="57.79" r="1.543"/>
        </g>
    </g>
</svg>
