<svg width="200" height="159" xmlns="http://www.w3.org/2000/svg">
    <g fill="none" fill-rule="evenodd">
        <g transform="translate(20 15)">
            <path d="M42.783 36.488h103.07a8.16 8.16 0 0 1 7.91 8.39v58.54a8.15 8.15 0 0 1-7.91 8.38H42.783a8.15 8.15 0 0 1-7.91-8.38v-58.54a8.16 8.16 0 0 1 7.91-8.39z" stroke="#292929" fill="#E3F7FF" fill-rule="nonzero"/>
            <path stroke="#292929" d="M139.073 53.118h-89.51M139.073 72.608h-89.51M111.153 92.108h-61.59"/>
            <rect stroke="#292929" fill="#00AEEF" fill-rule="nonzero" x="94.323" y="105.678" width="65.15" height="18.2" rx="9.1"/>
            <path d="M89.603 29.818h-39.59c-13 0-21.46 7.89-21.46 21.46v37.82C9.047 80.995-2.507 60.722.463 39.81 3.432 18.898 20.173 2.643 41.163.29c20.99-2.353 40.914 9.792 48.44 29.528z" stroke="#292929" fill="#292929" fill-rule="nonzero"/>
            <path d="M92.633 46.318a46.321 46.321 0 0 1-64.08 42.76v-37.8c0-13.57 8.44-21.46 21.46-21.46h39.62a45.829 45.829 0 0 1 3 16.5z" stroke="#292929" fill="#00AEEF" fill-rule="nonzero"/>
            <path d="M58.633 58.948v22.12h-1.74v-22.12h1.74zm-.82 9.25h14.89v1.65h-14.89v-1.65zm15.52-9.25v22.12h-1.77v-22.12h1.77zM78.823 66.578v12.46a4 4 0 0 1 1.65-1.74v-10.72h-1.65zM78.823 59.038a1.21 1.21 0 0 1 1.66 0c.221.222.341.526.33.84a1.1 1.1 0 0 1-.33.82 1.17 1.17 0 0 1-1.65 0 1.14 1.14 0 0 1-.35-.82 1.11 1.11 0 0 1 .34-.84z" fill="#292929" fill-rule="nonzero"/>
            <path stroke="#292929" fill="#FFF" fill-rule="nonzero" d="m144.853 122.248 3.03 5.83-3.47 1.9-2.69-6.25-3.4 1.62.86-12.17 8.79 7.57z"/>
            <path stroke="#292929" fill="#00AEEF" fill-rule="nonzero" d="M113.953 81.068v14.01"/>
        </g>
        <path d="M0 0h200v159H0z"/>
    </g>
</svg>
