<svg width="107" height="107" xmlns="http://www.w3.org/2000/svg">
    <g fill="none" fill-rule="evenodd">
        <path d="M0 0h107v107H0z"/>
        <g transform="translate(5.732 1.91)">
            <path d="M97.427 49.656c.002 16.045-7.943 31.042-21.2 40.017a47.986 47.986 0 0 1-44.926 4.75c1.428-4.695 3.967-13.45 5.117-16.354a3.431 3.431 0 0 0-.371-3.31 3.407 3.407 0 0 0-3-1.426h-11.9a5.558 5.558 0 0 1-4.682-3.98 5.984 5.984 0 0 1 1.111-5.093 29.773 29.773 0 0 0 4.403-9.988c0-2.268-1.23-4.616-3.371-4.616-3.333 0-6.149 3.98-8.608 8.516a97.968 97.968 0 0 1-5.633 8.715 47.888 47.888 0 0 1-3.134-17.231C.73 32.087 9.786 15.633 24.873 6.7a47.985 47.985 0 0 1 48.913 0c15.088 8.933 24.143 25.387 23.64 42.956z" stroke="#FFF" stroke-width="2"/>
            <path d="M36.418 78.148c-.992 2.905-3.689 11.66-5.117 16.356-.357 1.313-.714 2.268-.833 2.745-.674 2.229-1.904 5.93-5.791 5.93H11.785a15.039 15.039 0 0 1-10.393-7.76 51.893 51.893 0 0 1 0-23.877c.635-1.114 1.706-2.745 2.975-4.576A97.968 97.968 0 0 0 10 58.251c2.46-4.576 5.275-8.516 8.608-8.516 2.142 0 3.371 2.348 3.371 4.616a29.776 29.776 0 0 1-4.244 9.989 5.984 5.984 0 0 0-1.11 5.093 5.558 5.558 0 0 0 4.68 3.98h11.9a3.408 3.408 0 0 1 2.883 1.496c.648.955.772 2.173.33 3.24zM76.958 40.662c.005 10.66-6.149 20.355-15.778 24.86a27.262 27.262 0 0 1-29.125-3.848M49.39 39.03c-.394-4.315 2.727-8.154 7.02-8.634a8.28 8.28 0 0 1 7.1 3.302" stroke="#FFF" stroke-width="2"/>
            <ellipse fill="#FFF" fill-rule="nonzero" cx="35.109" cy="40.662" rx="3.332" ry="3.343"/>
        </g>
    </g>
</svg>
