<svg width="107" height="107" xmlns="http://www.w3.org/2000/svg">
    <g fill="none" fill-rule="evenodd">
        <path d="M0 0h107v107H0z"/>
        <g transform="translate(7.782 3.89)">
            <path d="M91.436 45.638a44.25 44.25 0 0 1-13.048 31.374 44.33 44.33 0 0 1-31.46 12.896 43.874 43.874 0 0 1-16.177-3.066c-.359-2.15-.996-4.22-1.275-5.374-.518-2.03.518-3.066 2.311-3.703s9.404-3.623 10.28-3.98c.877-.36 3.626-1.155 3.228-3.982-.399-2.827-3.985-2.588-6.296-2.309-2.311.279-19.564 3.981-24.943 5.016 2.31-13.257.478-17.238-2.312-16.601-1.514.279-3.745 5.056-5.06 8.52A43.76 43.76 0 0 1 2.58 45.638 44.3 44.3 0 0 1 24.352 6.16a44.382 44.382 0 0 1 45.113 0 44.3 44.3 0 0 1 21.772 39.478h.2z" stroke="#FFF" stroke-width="2"/>
            <path d="M22.662 60.447a24.559 24.559 0 0 1 25.332-7.369 24.53 24.53 0 0 1 17.383 19.83" stroke="#FFF" stroke-width="2"/>
            <path d="M42.067 73.784c-.876.358-8.447 3.344-10.28 3.981-1.833.637-2.83 1.672-2.311 3.703.279 1.154.916 3.224 1.275 5.374.29 1.5.29 3.04 0 4.539a6.132 6.132 0 0 1-4.622 5.414 70.07 70.07 0 0 1-16.337 0 17.444 17.444 0 0 1-9.244-9.674 18.457 18.457 0 0 1 1.036-11.943 33.79 33.79 0 0 0 3.984-7.326 28.487 28.487 0 0 1 1.116-3.304c1.315-3.464 3.546-8.24 5.06-8.52 2.67-.477 4.503 3.146 2.192 16.602 5.38-.916 22.752-4.778 24.944-5.017 2.191-.238 5.937-.517 6.295 2.31.359 2.826-2.271 3.463-3.108 3.861zM20.351 26.927c2.203-5.957 8.82-9.004 14.783-6.808a12.225 12.225 0 0 1 7.411 8.878M52.228 32.938l15.5-7.922" stroke="#FFF" stroke-width="2"/>
            <ellipse fill="#FFF" fill-rule="nonzero" cx="32.664" cy="32.938" rx="3.148" ry="3.145"/>
            <ellipse fill="#FFF" fill-rule="nonzero" cx="61.313" cy="39.228" rx="3.148" ry="3.145"/>
        </g>
    </g>
</svg>
