<svg width="430" height="384" xmlns="http://www.w3.org/2000/svg">
    <g fill="none" fill-rule="evenodd">
        <g transform="translate(21 31)">
            <ellipse stroke="#FFF" fill="#292929" fill-rule="nonzero" cx="226.734" cy="160.333" rx="160.266" ry="160.333"/>
            <ellipse stroke="#FFF" cx="226.734" cy="160.333" rx="160.266" ry="160.333"/>
            <ellipse stroke="#FFF" cx="226.734" cy="160.333" rx="125.7" ry="160.333"/>
            <ellipse stroke="#FFF" cx="226.734" cy="160.333" rx="83.602" ry="160.333"/>
            <ellipse stroke="#FFF" cx="226.734" cy="160.333" rx="29.851" ry="160.333"/>
            <path stroke="#FFF" d="M387 160.333H66.455M367.655 83.909H85.8M368.383 235.399H85.071"/>
            <path d="M230.412 314.466v-63.69l-22.517 44.67-18.728-53.193c-.383-1.47 15.123-29.27 18.184-35.544 3.062-6.274 13.74-25.565 25.592-25.565 11.852 0 80.96-.902 80.96-.902l4.519 77.919v56.305" stroke="#292929" fill="#0068EA" fill-rule="nonzero"/>
            <path d="M339.606 198.755a29.764 29.764 0 0 1-1.382 20.996c-10.123 23.033-43.209 80.204-46.579 85.292-3.778 5.706-7.889 5.644-13.358 5.644-7.148 0-108.255 2.124-113.737-1.951 4.272-6.608 43.011-36.891 43.011-36.891 8.333 0 30.48.247 42.9.247 0 0 38.592-70.607 41.567-76.35 2.975-5.743 14.654-21.75 33.517-12.919a25.587 25.587 0 0 1 14.061 15.932z" stroke="#292929" fill="#0068EA" fill-rule="nonzero"/>
            <path d="M237.696 100.903c-20.518 0-19.32 22.984-2.383 22.984 16.938 0 28.555-2.248 34.37 11.758 7.506 18.044 9.63 27.763 9.197 37.211 8.642 1.112 6.173-1.136 6.173-11.794 0-16.142 16.049-16.822 16.049-35.248 0-18.427-6.68-26.492-23.802-26.492-17.123 0-39.604 1.58-39.604 1.58z" stroke="#FFF" fill="#292929" fill-rule="nonzero"/>
            <path d="M262.3 183.737c0 5.805 2.099 10.325 8.21 10.325 5.827 0 8.642-4.211 8.642-10.634v-20.526c0-18.353 8.407-16.253 8.407-24.083 0-10.325-9.877-10.264-12.63-5.929-6.308-11.448-16.764-15.895-35.258-9.077 0 35.075 0 45.165 8.975 45.165 9.593 0 13.901-1.79 13.901.445 0 3.643-.247 14.314-.247 14.314z" stroke="#292929" fill="#FFF" fill-rule="nonzero"/>
            <path d="M255.597 138.078a6.48 6.48 0 0 1 9.16.358" stroke="#292929"/>
            <ellipse fill="#292929" fill-rule="nonzero" cx="260.177" cy="142.129" rx="1.432" ry="1.433"/>
            <path d="M239.671 138.078a6.492 6.492 0 0 1 9.173.358" stroke="#292929"/>
            <ellipse fill="#292929" fill-rule="nonzero" cx="244.264" cy="142.129" rx="1.432" ry="1.433"/>
            <path d="M205.34 312.07H76.194a15.297 15.297 0 0 1-14.814-11.374l-19.84-74.943a6.338 6.338 0 0 1 6.174-7.954h129.082a15.31 15.31 0 0 1 14.814 11.388l19.864 74.942a6.325 6.325 0 0 1-6.136 7.941z" stroke="#292929" fill="#FFF" fill-rule="nonzero"/>
            <path d="M77.701 311.366H273.77v4.323a6.31 6.31 0 0 1-6.308 6.311H83.516a5.779 5.779 0 0 1-5.778-5.78v-4.841l-.037-.013z" stroke="#292929" fill="#FFF" fill-rule="nonzero"/>
            <path d="M128.243 121.059v-30.74l10.864 21.563 9.049-25.676c.185-.716-7.309-14.129-8.79-17.167-1.482-3.038-6.63-12.35-12.345-12.35-5.716 0-39.086-.433-39.086-.433l-2.185 37.62v27.17" stroke="#292929" fill="#00AEEF" fill-rule="nonzero"/>
            <path d="M75.528 65.185a14.456 14.456 0 0 0 .667 10.165c4.938 11.115 20.851 38.718 22.48 41.164 1.828 2.754 3.816 2.73 6.445 2.73 3.457 0 52.27 1.024 54.912-.94-2.062-3.186-20.765-17.809-20.765-17.809-4.024 0-14.715.124-20.703.124 0 0-18.629-34.087-20.073-36.866-1.445-2.779-7.062-10.498-16.173-6.175a12.349 12.349 0 0 0-6.79 7.607zM129.058 11.288s5.024 17.871-3.148 17.871c-8.173 0-15.346.124-18.148 6.867-3.63 8.645.802 10.572-2.889 16.673-4.21.531-2.975-.543-2.975-5.669 0-7.756-7.753-8.077-7.753-16.944 0-8.868 3.21-12.734 11.457-12.734 8.246 0 23.456-6.064 23.456-6.064z" stroke="#292929" fill="#00AEEF" fill-rule="nonzero"/>
            <path d="M112.848 57.96c0 2.804-1.012 4.94-3.963 4.94-2.95 0-4.148-2.025-4.148-5.137v-9.88c0-8.856-4.061-7.843-4.061-11.622 0-4.94 4.765-4.94 6.098-2.865 3.05-5.521 8.099-7.67 17.025-4.385 0 16.933 0 21.811-4.334 21.811-4.63 0-6.716-.865-6.716.21-.024 1.766.1 6.928.1 6.928zM140.341 119.91h62.344a7.408 7.408 0 0 0 7.135-5.496l9.593-36.174a3.052 3.052 0 0 0-2.95-3.841h-62.344a7.408 7.408 0 0 0-7.136 5.496l-9.592 36.174a3.064 3.064 0 0 0 2.95 3.841z" stroke="#292929" fill="#CCF2FF" fill-rule="nonzero"/>
            <path d="M199.179 124.702h-88.824a3.038 3.038 0 0 1-3.037-3.038v-2.05h94.65v2.334a2.79 2.79 0 0 1-2.79 2.754zM239.178 69.706v15.537a9.039 9.039 0 0 1-9.037 8.892h-31.468a5.173 5.173 0 0 1-4.099-1.964c-2.988 2.396-4.395 1.766-6.173 1.964 1.692-.334 4.025-3.31 4.803-8.892.185-1.31.271-2.63.259-3.953V69.706a9.03 9.03 0 0 1 9.024-9.04h27.69c4.972.033 8.987 4.067 9 9.04z" stroke="#292929" fill="#CCF2FF" fill-rule="nonzero"/>
            <circle stroke="#292929" fill="#292929" fill-rule="nonzero" cx="222.005" cy="77.4" r="1"/>
            <circle stroke="#292929" fill="#292929" fill-rule="nonzero" cx="215.586" cy="77.4" r="1"/>
            <circle stroke="#292929" fill="#292929" fill-rule="nonzero" cx="209.179" cy="77.4" r="1"/>
            <path d="M0 200.373v34.655c.209 10.976 9.163 19.763 20.135 19.761h70.183c3.54.036 6.9-1.558 9.11-4.323 6.655 5.348 9.778 3.94 13.84 4.385-3.79-.741-8.987-7.41-10.728-19.76a61.864 61.864 0 0 1-.568-8.82v-25.898c0-11.11-8.992-20.123-20.098-20.143H20.148C9.034 180.25.028 189.255 0 200.373z" stroke="#292929" fill="#FFF" fill-rule="nonzero"/>
            <ellipse fill="#292929" fill-rule="nonzero" cx="38.295" cy="217.54" rx="2.062" ry="2.063"/>
            <ellipse fill="#292929" fill-rule="nonzero" cx="52.591" cy="217.54" rx="2.062" ry="2.063"/>
            <ellipse fill="#292929" fill-rule="nonzero" cx="66.887" cy="217.54" rx="2.062" ry="2.063"/>
        </g>
        <path d="M0 0h430v384H0z"/>
    </g>
</svg>
