<svg width="431" height="384" xmlns="http://www.w3.org/2000/svg">
    <g fill="none" fill-rule="evenodd">
        <path d="M1 0h430v384H1z"/>
        <g transform="translate(1 11)" fill-rule="nonzero">
            <path d="M312.497 7.37c0 20.824-1 48.235-3.642 73.221-20.744-11.854-43.902-25.026-57.269-31.902.934-8.904 1.761-34.562 1.694-42.083 10.139 0 32.016.764 59.217.764zM189.211 59.416l1.465 88.103c0 15.699-6.657 25.16-15.325 28.95-14.352 6.304-33.924-3.33-36.027-26.555-.08-1.08-.16-2.238-.253-3.461-1.225-15.792-3.488-54.296-6.657-73.246 17.095-7.527 56.797-53.177 56.797-13.79z" stroke="#FFF" fill="#292929"/>
            <path d="m136.386 97.766-.373-3.606-6.247-61.13c3 19.178 5.152 45.251 6.44 61.223.026 1.224.103 2.395.18 3.513zM244.915 45.88c-11.113 13.464-7.654 27.375 1.644 40.326-.526 3.777-1 7.265-1.42 10.318-1.065 7.502-1.789 12.424-1.789 12.424-5.024 36.851-55.331 31.942-55.331-13.569L186.703 0h64.368c.407 5.12.92 40.076 0 48.973-2.38-1.211-4.472-2.29-6.156-3.093zM286.014 121.358a33.85 33.85 0 0 1-1.478 1.58c-4.957 4.964-9.404 7.858-13.61 7.858-28.803 0-26.519-26.761-25.39-34.513.43-3.08.913-6.637 1.45-10.407a88.602 88.602 0 0 0 6.892 8.336c9.23 9.89 22.288 19.487 32.136 27.146zM137.24 97.766l-.384-3.963.133.117c.092 1.33.172 2.618.251 3.846z" stroke="#FFF" fill="#292929"/>
            <path d="M308.489 81.61c4.93 2.855 9.73 5.657 14.223 8.275 16.25 9.504 22.26 29.989 13.707 46.728l-65.71 100.858-.172 117.923H105.834l16.106-115.002-47.018-97.91c-8.484-22.565-8.47-35.056-5.846-49.504 2.16-11.897 13.918-52.875 16.159-63.912-.49 17.263 2.77 55.518 4.454 66.7 8.086 53.603 50.173 43.689 47.88 13.643 0 0-.252-4.19-.743-10.84 2.095 23.331 21.594 33.047 35.87 26.675 8.564-3.793 15.258-13.297 15.258-29.08 0 45.71 50.703 50.587 55.767 13.628 0 0 .729-4.944 1.803-12.478-1.114 7.772-4.494 34.368 25.053 34.368 4.096 0 8.537-2.882 13.428-7.825.49-.503.981-1.018 1.458-1.573-9.716-7.614-22.6-17.185-31.707-27.085a88.06 88.06 0 0 1-6.8-8.302c-9.373-13.007-12.859-26.979-1.658-40.502a198.31 198.31 0 0 1 6.217 3.12c13.256 6.926 36.295 20.066 56.907 32.015" stroke="#FFF" fill="#292929"/>
            <path d="m136.386 97.766-.373-3.606-6.247-61.13c3 19.178 5.152 45.251 6.44 61.223.026 1.224.103 2.395.18 3.513z" stroke="#FFF" fill="#292929"/>
            <path d="M89.874 99.562c-1.7-11.252-4.527-77.583-5.13-91.263 15.389 0 29.089-.372 45.347-.372l6.388 87.163.389 3.596c.495 6.634.75 10.88.75 10.88 2.317 30.187-39.575 43.814-47.744-10.004z" stroke="#FFF" fill="#292929"/>
            <rect stroke="#292929" fill="#CCF2FF" x="219.807" y="30.387" width="150.952" height="33.029" rx="12.56"/>
            <path stroke="#292929" fill="#FFF" d="m357.746 78.93 7.505 14.209-8.588 4.627-6.646-15.225-8.39 3.937 2.128-29.668 21.707 18.47z"/>
            <path d="M241.765 47.532c.216.37.531.673.911.875.377.201.8.305 1.229.301.333 0 .664-.048.983-.143.275-.097.537-.228.78-.388.22-.15.42-.328.593-.53v1.764c-.31.248-.656.446-1.027.588a4.002 4.002 0 0 1-1.445.201 4.365 4.365 0 0 1-1.633-.287 3.762 3.762 0 0 1-2.183-2.08 4.162 4.162 0 0 1-.304-1.621 4.091 4.091 0 0 1 .304-1.607 3.733 3.733 0 0 1 2.212-2.038 4.714 4.714 0 0 1 1.633-.287c.491-.018.981.055 1.445.215.37.138.717.331 1.027.574v1.765a4.325 4.325 0 0 0-.593-.53 3.095 3.095 0 0 0-1.763-.517 2.56 2.56 0 0 0-1.23.301c-.375.2-.69.498-.91.86a2.68 2.68 0 0 0 0 2.64l-.029-.056zM249.156 42.277v6.606h-1.542v-6.606h1.542zm-1.033 2.47h5.531v1.235h-5.56l.03-1.235zm6.111-2.47v6.606h-1.542v-6.606h1.542zM258.069 42.277v6.606h-1.186v-6.606h1.186zm-.415 0h3.201v1.136h-3.201v-1.136zm0 2.532h3.023v1.123h-3.023V44.81zm0 2.926h3.201v1.148h-3.201v-1.148zM264.285 47.55c.216.368.533.67.915.87.379.2.803.303 1.234.299.334 0 .667-.048.987-.142a3.51 3.51 0 0 0 .77-.385 3.09 3.09 0 0 0 .609-.527v1.752c-.31.246-.659.443-1.03.584-.468.153-.96.22-1.453.2a4.43 4.43 0 0 1-1.64-.285 3.655 3.655 0 0 1-1.321-.812 3.63 3.63 0 0 1-.871-1.254 4.091 4.091 0 0 1-.305-1.61 4.021 4.021 0 0 1 .305-1.595c.197-.478.493-.91.87-1.268a3.655 3.655 0 0 1 1.322-.812 4.71 4.71 0 0 1 1.64-.285c.494-.017.986.055 1.452.213.372.137.72.33 1.031.57v1.753a4.446 4.446 0 0 0-.61-.528 3.058 3.058 0 0 0-1.757-.513 2.594 2.594 0 0 0-1.233.3c-.378.2-.694.494-.915.855a2.635 2.635 0 0 0 0 2.62zM271.445 42.277v6.606h-1.32v-6.606h1.32zm3.775 0-2.607 3.087 2.808 3.52h-1.57l-2.724-3.483 2.619-3.124h1.474zM289.572 42.64h1.738l-3.046 7.564-2.25-4.708-2.278 4.708-3.019-7.564h1.725l1.564 4.453 2.008-4.816 2.035 4.816zM293.959 42.277v6.606h-1.325v-6.606zM295.283 42.277h5.296v1.23h-1.906v5.376h-1.457v-5.4h-1.933zM302.132 42.277v6.606h-1.553v-6.606h1.553zm-1.03 2.47h5.547v1.235h-5.547v-1.235zm6.098-2.47v6.606h-1.539v-6.606h1.539zM315.136 42.277v6.606h-1.315v-6.606h1.315zm3.826 0-2.63 3.087 2.785 3.52h-1.59l-2.75-3.483 2.654-3.124h1.53zM321.766 42.277v6.606h-1.325v-6.606zM329.71 42.641v7.563l-5.247-4.826v4.476h-1.373v-7.577l5.22 4.827V42.64zM333.957 42.29v6.593h-1.598v-6.592h1.598zm-.6 6.593v-1.232h1.542c.323.002.645-.035.956-.11a2.76 2.76 0 0 0 .785-.37c.226-.185.406-.407.528-.654.128-.3.19-.617.185-.936a2.327 2.327 0 0 0-.185-.937 1.917 1.917 0 0 0-.528-.64 2.23 2.23 0 0 0-.785-.37 3.42 3.42 0 0 0-.956-.123h-1.541v-1.233h1.598a5.044 5.044 0 0 1 2.098.407 3.316 3.316 0 0 1 1.427 1.134 3.32 3.32 0 0 1 0 3.5 3.254 3.254 0 0 1-1.427 1.145c-.65.282-1.37.421-2.098.407l-1.598.012zM341.656 42.277v5.38h2.62v1.226h-3.973v-6.606zM350.897 42.302l-2.544 3.85v2.731h-1.534v-2.73l-2.543-3.863h1.714l1.59 2.632 1.589-2.645z" fill="#292929"/>
            <path d="M308.489 81.61c4.93 2.855 9.73 5.657 14.223 8.275 16.25 9.504 22.26 29.989 13.707 46.728l-65.71 100.858 14.754 115.993-179.629 1.93 16.106-115.002-47.018-97.91c-8.484-22.565-8.47-35.056-5.846-49.504 2.16-11.897 13.918-52.875 16.159-63.912-.49 17.263 4.348 55.36 4.454 66.7.623 44.812 45.255 44.442 47.88 13.643 0 0-.252-4.19-.743-10.84 2.095 23.331 21.594 33.047 35.87 26.675 8.564-3.793 15.258-13.297 15.258-29.08 0 45.71 50.703 50.587 55.767 13.628 0 0 .729-4.944 1.803-12.478-1.114 7.772.265 34.368 23.78 34.368a12.901 12.901 0 0 0 9.425-4.124 25.986 25.986 0 0 0 3.142-3.966c-9.716-7.614-22.601-17.184-31.708-27.085a88.066 88.066 0 0 1-6.813-8.169c-9.372-13.007-9.28-28.367 1.935-41.89a198.31 198.31 0 0 1 6.217 3.12c13.256 6.926 36.294 20.066 56.907 32.015" stroke="#FFF" fill="#292929"/>
            <path d="M336.331 274.558v14.082c-.217 12.852-10.774 23.157-23.721 23.156H160.797a13.588 13.588 0 0 1-10.755-5.129c-7.84 6.259-11.523 4.615-16.304 5.129 4.463-.869 10.596-8.626 12.622-23.156.477-3.415.702-6.86.676-10.308v-3.774c0-12.999 10.614-23.536 23.708-23.536H312.61c13.068.065 23.649 10.562 23.721 23.536z" stroke="#292929" fill="#FFF"/>
            <path stroke="#292929" fill="#0068EA" d="M213.186 280.748h47.669M178.759 280.748h23.834"/>
            <ellipse stroke="#292929" fill="#0068EA" cx="320.441" cy="291.978" rx="63.559" ry="63.416"/>
            <path d="M279.772 291.978c2.755 0 4.349 3.09 4.349 6.02 0 2.932-3.056 8.82-5.512 13.072-2.455 4.252-1.462 5.282-1.462 6.602 0 1.32 2.768 5.281 6.099 5.281h15.267c1.737 0 5.955 1.32 4.362 6.166-1.594 4.846-6.791 22.037-7.758 24.981-.966 2.944-2.468 7.83-7.562 7.83-5.093 0-14.366.158-16.703 0-2.338-.159-10.657-3.579-13.465-10.18-2.808-6.602-2.037-27.622 0-31.292 2.037-3.67 7.993-11.316 11.192-17.35 3.2-6.033 6.83-11.13 11.193-11.13z" stroke="#292929" fill="#0068EA"/>
            <ellipse fill="#292929" cx="297.269" cy="278.106" rx="3.31" ry="3.303"/>
            <path d="M356.193 280.088c.013 13.86-8.152 26.47-20.932 32.33-12.78 5.859-27.857 3.905-38.654-5.01M320.487 277.445c-.526-5.325 3.595-10.047 9.206-10.547 3.622-.225 7.118 1.306 9.286 4.069" stroke="#292929" fill="#0068EA"/>
            <path d="M90.041 99.088c-1.756-11.158-4.674-56.457-5.296-70.022M136.232 94.022c-1.216-15.752-4.677-74.91-7.79-93.825C151.76.197 167.861 0 185.528 0l2.499 95.124M129.766 159.861c49.22 0 86.068 33.792 86.068 76.628" stroke="#FFF" fill="#292929"/>
            <rect stroke="#292929" fill="#CCF2FF" transform="rotate(180 108.58 217.332)" x="45.021" y="192.891" width="127.117" height="48.883" rx="8.3"/>
            <path stroke="#292929" fill="#00AEEF" d="M92.69 217.332H67.531M150.952 217.332H97.986"/>
            <ellipse stroke="#292929" fill="#06ADEF" cx="43.034" cy="192.23" rx="40.386" ry="40.296"/>
            <ellipse fill="#292929" cx="52.303" cy="186.945" rx="1.986" ry="1.982"/>
            <path d="M21.186 205.588c5.661-6.364 14.541-8.913 22.773-6.537 8.232 2.376 14.326 9.247 15.627 17.62" stroke="#292929" fill="#06ADEF"/>
            <path d="M10.67 202.173c2.42-.415 4.085 2.818 1.983 14.816 4.892-.831 20.653-4.26 22.636-4.441 1.983-.182 5.368-.455 5.725 2.064.357 2.52-2.195 3.208-2.962 3.545-.766.338-7.668 2.987-9.255 3.558-1.587.571-2.565 1.493-2.09 3.337.477 1.844 1.865 6.193 1.323 8.83-.542 2.635-1.877 4.362-4.204 4.817-2.328.454-12.614.688-14.822 0-2.209-.689-7.828-4.818-8.529-8.492-.7-3.675-.806-8.129.94-10.894 1.744-2.766 3.384-4.921 3.728-6.492.343-1.572 3.543-10.297 5.527-10.648zM17.214 176.376c1.975-5.757 7.91-8.702 13.259-6.575 3.397 1.476 5.878 4.69 6.603 8.557M46.345 181l14.565-6.606" stroke="#292929" fill="#06ADEF"/>
            <ellipse fill="#292929" cx="28.469" cy="181.661" rx="1.986" ry="1.982"/>
        </g>
    </g>
</svg>
