<svg width="430" height="384" xmlns="http://www.w3.org/2000/svg">
    <g fill="none" fill-rule="evenodd">
        <g transform="translate(21 22)">
            <path d="M99.154 73.91v122.576c0 65.373 106.25 124.033 143.93 143.514C280.623 319.62 387 249.914 387 195.878V73.91c-68.417-58.38-215.26-57.367-287.846 0z" stroke="#FFF" fill="#292929" fill-rule="nonzero"/>
            <path d="M308.232 129.834h-26.898v-21.33c0-21.12-17.126-38.242-38.25-38.242-21.126 0-38.25 17.121-38.25 38.241v21.33h-26.886a18.893 18.893 0 0 0-13.37 5.532 18.884 18.884 0 0 0-5.534 13.368v87.527c.007 10.432 8.469 18.886 18.904 18.886h130.284c10.433 0 18.89-8.456 18.89-18.886v-87.527a18.884 18.884 0 0 0-5.528-13.363 18.893 18.893 0 0 0-13.362-5.536zm-94.15 0v-20.546a28.976 28.976 0 0 1 1.52-9.31c.165-.506.355-1 .545-1.494.076-.216.178-.43.266-.646.09-.216.28-.608.431-.912.152-.304.342-.735.532-1.09.165-.33.347-.651.545-.962.36-.656.759-1.29 1.191-1.9.195-.315.407-.62.634-.912v-.076c.418-.558.861-1.115 1.33-1.647a28.67 28.67 0 0 1 8.413-6.7c.22-.127.435-.241.646-.343l1.115-.519.798-.342c.481-.203.988-.393 1.495-.557.253-.102.494-.178.735-.254l.849-.253c.291-.089.583-.152.874-.228l.545-.14.836-.19c.71-.126 1.394-.24 2.116-.329l1.178-.114c.773 0 1.571-.088 2.37-.088 16.023 0 29.013 12.986 29.013 29.006v20.546h-57.977z" stroke="#FFF" fill="#292929" fill-rule="nonzero"/>
            <path d="m248.1 190.229 10.808 28.424h-31.675l10.782-28.424a15.82 15.82 0 0 1 5.018-30.825 15.82 15.82 0 0 1 5.017 30.825h.05z" stroke="#FFF" fill="#292929" fill-rule="nonzero"/>
            <rect stroke="#292929" fill="#CCF2FF" fill-rule="nonzero" x="13.443" y="294.476" width="196.8" height="31.527" rx="12.45"/>
            <path stroke="#292929" fill="#FFF" fill-rule="nonzero" d="M180.33 300.835v18.81"/>
            <path stroke="#292929" d="M34.234 303.089v14.301M27.088 310.246h14.304M29.179 305.179l10.11 10.121M29.179 315.3l10.11-10.121M72.003 303.457v14.3M64.844 310.601h14.304M66.935 305.547l10.123 10.108M66.935 315.655l10.123-10.108M53.112 303.457v14.3M45.966 310.601H60.27M48.057 305.547l10.123 10.108M48.057 315.655l10.123-10.108M90.881 303.089v14.301M83.722 310.246h14.304M85.825 305.179 95.936 315.3M85.825 315.3l10.111-10.121M109.759 303.089v14.301M102.6 310.246h14.305M104.703 305.179l10.111 10.121M104.703 315.3l10.111-10.121M128.637 303.267v14.3M121.491 310.423h14.304M123.582 305.369l10.11 10.108M123.582 315.477l10.11-10.108M166.393 303.634v14.301M159.247 310.778h14.304M161.338 305.724l10.11 10.108M161.338 315.832l10.11-10.108M147.515 303.634v14.301M140.369 310.778h14.304M142.46 305.724l10.11 10.108M142.46 315.832l10.11-10.108"/>
            <path d="m135.567 144.046 13.836-8.968s16.344 5.067 19.537 5.877c3.192.81 6.043-.19 7.753-4.724 1.71-4.535 3.396-10.957 3.966-13.237.38-1.533 2.243-2.09 4.41-2.534a3.686 3.686 0 0 0 2.964-3.876c-.38-5.56-.418-19.164-.418-19.164s12.606-22.61 1.52-47.59c-40.214 12.414-72.89 52.834-53.568 94.216z" stroke="#292929" fill="#FFF" fill-rule="nonzero"/>
            <path d="M146.907 294.476H34.082c0-31.984-5.068-88.667-3.282-100.32 2.382-14.77 88.943-42.155 104.197-33.935 15.255 8.221 13.455 56.203 15.723 63.144 3.535 10.957-4.7 49.881-3.813 71.11z" stroke="#292929" fill="#0068EA" fill-rule="nonzero"/>
            <path d="m309.701 160.054 1.46 1.757a3.169 3.169 0 0 1-.41 4.464l-57.152 47.49a3.172 3.172 0 0 1-4.464-.411l-1.461-1.757a3.169 3.169 0 0 1 .41-4.464h.001l57.151-47.49a3.172 3.172 0 0 1 4.465.411z" stroke="#292929" stroke-width="1.001" fill="#FFF" fill-rule="nonzero"/>
            <path d="M192.759 64.968c0-19.152-14.241-32.655-41.14-32.655-45.75 0-53.542 28.221-57.546 34.63C83.76 83.41 68.873 80.599 54.797 94.71c-12.112 12.059-13.303 25.447-13.303 48.552C41.494 172.825 0 180.678 0 224.328c0 23.218 22.983 54.77 53.01 54.77 30.408 0 57.509-21.926 57.509-52.68 0-19.47 25.58-31.11 28.203-60.8 1.761-20.001-8.577-80.13 23.186-80.13 16.103-.102 30.85-2.508 30.85-20.52z" stroke="#292929" fill="#292929" fill-rule="nonzero"/>
            <path d="M171.258 96.52a7.274 7.274 0 0 1 10.275.406" stroke="#292929"/>
            <path d="M217.389 222.288s30.319-22.42 41.405-30.514c4.295-3.129 7.602.152 3.991 3.293-4.067 3.56-12.607 10.02-13.873 11.274-3.801 3.8.76 8.157 3.965 5.712 5.068-3.9 28.697-21.71 32.942-25.333 4.016-3.243 5.27-.532 3.015 2.533-.785 1.077-25.618 36.48-25.618 36.48l-33.449 13.187-12.378-16.632z" stroke="#292929" fill="#FFF" fill-rule="nonzero"/>
            <circle fill="#292929" fill-rule="nonzero" cx="176.402" cy="101.068" r="1.609"/>
            <path d="M161.502 247.812s10.618-5.713 22.223-12.502c12.277-7.17 24.428-14.96 29.42-18.557 0 0 16.61 21.533 21.538 29.133-6.335 4.662-63.881 46.082-68.822 49.932-4.941 3.851-15.673 3.8-20.019-2.736-4.345-6.536-51.769-88.578-56.355-105.513 0 0-4.092-24.282 17.522-34.39 21.615-10.108 35.007 8.195 38.403 14.782 3.395 6.586 38.339 67.387 38.339 67.387" stroke="#292929" fill="#0068EA" fill-rule="nonzero"/>
            <path d="M352.652 29.095v22.598c-.118 7.17-5.966 12.92-13.139 12.92h-45.788a7.49 7.49 0 0 1-5.968-2.9c-4.346 3.483-6.335 2.533-9.033 2.85 2.47-.482 5.866-4.814 6.993-12.92.266-1.906.393-3.828.38-5.751V29.095c0-7.254 5.883-13.135 13.14-13.135h40.276c7.25.014 13.125 5.887 13.14 13.135z" stroke="#292929" fill="#00AEEF" fill-rule="nonzero"/>
            <circle stroke="#292929" fill="#292929" fill-rule="nonzero" cx="327.667" cy="40.293" r="1.343"/>
            <circle stroke="#292929" fill="#292929" fill-rule="nonzero" cx="318.342" cy="40.293" r="1.343"/>
            <circle stroke="#292929" fill="#292929" fill-rule="nonzero" cx="309.017" cy="40.293" r="1.343"/>
            <path d="M352.652 4.712c10.554 0 19.537 5.94 22.87 14.225-3.333 8.296-12.316 14.224-22.87 14.224s-19.524-5.928-22.806-14.224c3.282-8.272 12.252-14.225 22.806-14.225zm0 25.093c5.258 0 9.515-4.864 9.515-10.868 0-6.004-4.257-10.856-9.515-10.856-5.258 0-9.515 4.864-9.515 10.856 0 5.991 4.257 10.88 9.515 10.88v-.012z" stroke="#292929" fill="#FFF" fill-rule="nonzero"/>
            <path d="M341.769 18.95a10.873 10.873 0 0 0 18.553 7.702 10.866 10.866 0 0 0-7.683-18.558c-5.998 0-10.863 4.858-10.87 10.855zM333.698 0l37.908 37.899" stroke="#292929" fill="#FFF" fill-rule="nonzero"/>
        </g>
        <path d="M0 0h430v384H0z"/>
    </g>
</svg>
