<svg width="200" height="159" xmlns="http://www.w3.org/2000/svg">
    <g fill="none" fill-rule="evenodd">
        <g transform="translate(22 15)">
            <rect stroke="#292929" fill="#E3F7FF" fill-rule="nonzero" y="36.557" width="112.5" height="76.75" rx="7.99"/>
            <path stroke="#292929" d="M88.37 57.127H18.44M88.37 76.227H18.44M66.56 95.317H18.44M102.31 66.627H75.38"/>
            <circle stroke="#292929" fill="#00AEEF" fill-rule="nonzero" cx="96.98" cy="98.807" r="9.59"/>
            <path stroke="#292929" fill="#FFF" fill-rule="nonzero" d="m109.28 115.677 4.86 9.32-5.55 3.04-4.31-9.99-5.43 2.59 1.38-19.47 14.06 12.12z"/>
            <path stroke="#292929" d="M88.12 57.977h28.94M74.89 57.977H84"/>
            <path d="M155.11 48.617a48.48 48.48 0 0 1-22.65 41v-41.27c0-15.66-11.69-28.91-29.24-28.91H67.71C80.252 2.702 102.1-4.121 121.935 2.502c19.836 6.622 33.202 25.202 33.175 46.115z" stroke="#292929" fill="#292929" fill-rule="nonzero"/>
            <path d="M132.46 48.347v41.27a.32.32 0 0 1-.12.08c-17.902 11.205-40.994 9.552-57.117-4.09-16.123-13.64-21.578-36.14-13.493-55.65a46.52 46.52 0 0 1 4.5-8.34c.467-.735.975-1.442 1.52-2.12h35.51c17.51-.03 29.2 13.19 29.2 28.85z" stroke="#292929" fill="#06ADEF" fill-rule="nonzero"/>
            <path d="M67.65 56.047v7.88a4.07 4.07 0 0 1-.49 2 3.89 3.89 0 0 1-1.35 1.44 3.66 3.66 0 0 1-2 .53 3 3 0 0 1-1.84-.58 6.14 6.14 0 0 1 1 1.89c.2.04.405.06.61.06a4.11 4.11 0 0 0 2.54-.76 4.74 4.74 0 0 0 1.6-2.19v2.7h1.45v-12.93l-1.52-.04z" fill="#292929" fill-rule="nonzero"/>
            <path d="M60.81 64.257v-8.21h-1.46v4.69a4.12 4.12 0 0 1 .69 2.6v.1a4 4 0 0 1 .72 1.85c.06.08.11.17.17.26a5.64 5.64 0 0 1-.12-1.29z" stroke="#292929" fill="#000" fill-rule="nonzero"/>
            <path d="M73.27 58.897a6 6 0 0 1 2.29-2.28 6.12 6.12 0 0 1 3.13-.81 4.76 4.76 0 0 1 2.9.88 6 6 0 0 1 1.9 2.4 9.09 9.09 0 0 1 0 6.91 6 6 0 0 1-1.9 2.42 4.7 4.7 0 0 1-2.9.89 6.13 6.13 0 0 1-3.13-.82 5.92 5.92 0 0 1-2.29-2.34 8.16 8.16 0 0 1 0-7.21v-.04zm1 10.94a4.21 4.21 0 0 0 .57 2.16 4 4 0 0 0 1.59 1.52c1.46.749 3.19.749 4.65 0a4.26 4.26 0 0 0 1.76-1.76 6.05 6.05 0 0 0 .68-3v-12.71h1.45v12.66a7.23 7.23 0 0 1-.87 3.73 5.77 5.77 0 0 1-2.29 2.28 6.21 6.21 0 0 1-3 .76 6.79 6.79 0 0 1-3.13-.7 5.15 5.15 0 0 1-2.13-2 5.71 5.71 0 0 1-.76-2.94h1.48zm.35-4.42a4.58 4.58 0 0 0 1.81 1.84 5 5 0 0 0 2.48.63 4.07 4.07 0 0 0 2.29-.7 5.16 5.16 0 0 0 1.69-1.93 6.28 6.28 0 0 0 .29-4.88 5.64 5.64 0 0 0-1-1.69 5 5 0 0 0-1.52-1.14 4 4 0 0 0-1.73-.4 5 5 0 0 0-2.49.63 4.43 4.43 0 0 0-1.87 1.84 6.63 6.63 0 0 0 0 5.8h.05zM90.72 47.037v22h-1.46v-22zM96.6 75.177h-1.63l3.33-7.51-5.25-11.62h1.75l4.73 11-.68-.06 4.57-11h1.63z" fill="#292929" fill-rule="nonzero"/>
            <path stroke="#292929" d="M60.13 62.657h50.55"/>
            <circle stroke="#292929" cx="106.57" cy="48.567" r="48.55"/>
        </g>
        <path d="M0 0h200v159H0z"/>
    </g>
</svg>
