<svg width="200" height="159" xmlns="http://www.w3.org/2000/svg">
    <g fill="none" fill-rule="evenodd">
        <g transform="translate(23 25)">
            <rect stroke="#292929" fill="#E3F7FF" fill-rule="nonzero" width="112.33" height="67.13" rx="7.47"/>
            <path d="M0 50.31h112.33v26.53a8.84 8.84 0 0 1-8.84 8.84H8.84A8.84 8.84 0 0 1 0 76.84V50.31z" stroke="#292929" fill="#292929" fill-rule="nonzero"/>
            <path stroke="#FFF" d="M32.96 66.77h60.87"/>
            <path stroke="#292929" d="M90.23 51.54h-7.57"/>
            <circle fill="#FFF" fill-rule="nonzero" cx="22.05" cy="75.83" r="1.34"/>
            <path stroke="#FFF" d="M19.08 60.95h5.94l-2.6 10.55h-.74z"/>
            <path stroke="#292929" d="M18.28 19.57h75.55M18.5 33.38h75.56"/>
            <circle stroke="#292929" fill="#00AEEF" fill-rule="nonzero" cx="111.1" cy="68.86" r="43.87"/>
            <circle fill="#292929" fill-rule="nonzero" cx="124.09" cy="64.76" r="2.15"/>
            <path d="M87.11 83.61a24.3 24.3 0 0 1 42.29 12.32" stroke="#292929"/>
            <path d="M76.4 79.06c2.64-.47 4.46 3.12 2.14 16.45 5.35-.93 22.53-4.74 24.7-5 2.17-.26 5.85-.5 6.24 2.3.39 2.8-2.38 3.56-3.23 3.94-.85.38-8.33 3.32-10.11 3.93-1.78.61-2.8 1.66-2.29 3.7.51 2.04 2 6.87 1.42 9.8-.58 2.93-2 4.84-4.59 5.35-2.59.51-13.74.76-16.17 0-2.43-.76-8.54-5.35-9.25-9.42-.71-4.07-.89-9 1-12.11 1.89-3.11 3.7-5.48 4.08-7.26.38-1.78 3.9-11.32 6.06-11.68z" stroke="#292929" fill="#00AEEF" fill-rule="nonzero"/>
            <path d="M83.08 51.02c2.175-5.905 8.723-8.93 14.63-6.76a12 12 0 0 1 7.29 8.78M114.64 56.98l15.34-7.87" stroke="#292929"/>
            <circle fill="#292929" fill-rule="nonzero" cx="95.3" cy="56.98" r="2.15"/>
        </g>
        <path d="M0 0h200v159H0z"/>
    </g>
</svg>
